<svg version="1.1" id="users" xmlns="http://www.w3.org/2000/svg" xmlns:xlink="http://www.w3.org/1999/xlink" x="0px" y="0px"
	 viewBox="0 0 24 24" xml:space="preserve">
<rect fill="none" width="24" height="24"/>
<path fill="#FFFFFF" d="M12,12c2.762,0,5-2.238,5-5s-2.238-5-5-5S7,4.238,7,7S9.238,12,12,12z M12,11c-2.206,0-4-1.794-4-4
	c0-2.206,1.794-4,4-4c2.206,0,4,1.794,4,4C16,9.206,14.206,11,12,11z M2.63,22c0.723-4.526,4.643-8,9.37-8
	c4.726,0,8.647,3.474,9.37,8H20.36c-0.709-3.978-4.178-7-8.36-7c-4.182,0-7.65,3.022-8.36,7H2.63z"/>
</svg>
